<?xml version='1.0' encoding='utf-8'?>
<svg xmlns="http://www.w3.org/2000/svg" width="34.096mm" height="20.407mm" clip-rule="evenodd" fill-rule="evenodd" image-rendering="optimizeQuality" shape-rendering="geometricPrecision" text-rendering="geometricPrecision" version="1.0" viewBox="0 0 2968 1777"> <defs> <style type="text/css">.fil1 {fill:none} .fil0 {fill:black}</style> </defs> <path class="fil0" d="m2018 973c-56 660-864 710-1071 101-55-160 1-295 107-428 299-377 931-256 964 327zc-74-629-778-596-912-185-6 18-19 238-20 259-2 438 828 636 932-74z"/> <ellipse class="fil1" transform="matrix(-.010877 .76989 -.76133 -.010756 1512.7 965.59)" rx="656" ry="663"/> <path class="fil0" d="m776 25c-422 12-461-86-532 221-7 32-100 25-157 23 1 201-11 1293 66 1319 54 18 1356-37 1357-37l1249 1 36-1245c-338-8-1855-43-1859-62-33-141-19-216-160-220zc134-4 145 71 176 210 133-5 1900-65 1934-51 93 39 83 1386 81 1463-2 39-18 73-51 96-119 81-2596-7-2748-18-60-5-107-27-141-79-61-94 0-1310 10-1402 5-45 110-26 171-21 76-311 195-209 568-198z"/> <path class="fil1" d="m776 25h-427c-60 0-111 93-125 219h-162v1307c0 58 48 106 106 106h2683c6 0 11-5 11-10v-1403h-1917c-14-126-65-219-125-219h-44z"/> </svg>